<svg width="6" height="10" viewBox="0 0 6 10" fill="none" xmlns="http://www.w3.org/2000/svg">
<path d="M5.00809 0.776247L1.05572 4.68023C0.969036 4.76541 0.920416 4.88039 0.920416 5.00021C0.920416 5.12003 0.969036 5.23502 1.05572 5.3202L5.00723 9.22418C5.09387 9.30989 5.14242 9.42525 5.14242 9.54541C5.14242 9.66558 5.09387 9.78094 5.00724 9.86665C4.96491 9.90886 4.91432 9.9424 4.85846 9.9653C4.80259 9.9882 4.74257 10 4.68194 10C4.62131 10 4.56129 9.9882 4.50543 9.9653C4.44956 9.9424 4.39897 9.90886 4.35665 9.86665L0.405134 5.9635C0.145477 5.70641 2.4103e-07 5.36051 2.24829e-07 5.00021C2.08629e-07 4.63992 0.145477 4.29402 0.405134 4.03693L4.35665 0.133778C4.39899 0.0914449 4.44963 0.0577945 4.50557 0.0348166C4.56152 0.0118388 4.62164 -1.8409e-07 4.68237 -1.86509e-07C4.7431 -1.88928e-07 4.80322 0.0118387 4.85917 0.0348166C4.91511 0.0577945 4.96575 0.0914448 5.00809 0.133778C5.09473 0.219486 5.14328 0.334846 5.14328 0.455012C5.14328 0.575179 5.09473 0.690538 5.00809 0.776247Z" fill="#C33131"/>
</svg>
