<svg width="6" height="10" viewBox="0 0 6 10" fill="none" xmlns="http://www.w3.org/2000/svg">
<path d="M0.827846 0.776247L4.78022 4.68023C4.8669 4.76541 4.91552 4.88039 4.91552 5.00021C4.91552 5.12003 4.8669 5.23502 4.78022 5.3202L0.828703 9.22418C0.742065 9.30989 0.693518 9.42525 0.693518 9.54541C0.693518 9.66558 0.742065 9.78094 0.828702 9.86665C0.871027 9.90886 0.921613 9.9424 0.97748 9.9653C1.03335 9.9882 1.09336 10 1.154 10C1.21463 10 1.27464 9.9882 1.33051 9.9653C1.38638 9.9424 1.43696 9.90886 1.47929 9.86665L5.4308 5.9635C5.69046 5.70641 5.83594 5.36051 5.83594 5.00021C5.83594 4.63992 5.69046 4.29402 5.4308 4.03693L1.47929 0.133778C1.43695 0.0914449 1.38631 0.0577945 1.33037 0.0348166C1.27442 0.0118388 1.2143 -1.8409e-07 1.15357 -1.86509e-07C1.09283 -1.88928e-07 1.03272 0.0118387 0.976769 0.0348166C0.920823 0.0577945 0.870183 0.0914448 0.827846 0.133778C0.741207 0.219486 0.692661 0.334846 0.692661 0.455012C0.692661 0.575179 0.741207 0.690538 0.827846 0.776247Z" fill="#F2F2F2"/>
</svg>
