<svg width="46" height="35" viewBox="0 0 46 35" fill="none" xmlns="http://www.w3.org/2000/svg">
<path d="M37.5733 11.281L24.1039 21.3675C23.81 21.5888 23.4133 21.7128 22.9999 21.7128C22.5865 21.7128 22.1898 21.5888 21.8959 21.3675L8.42653 11.2832C8.13082 11.0621 7.73282 10.9382 7.31822 10.9382C6.90363 10.9382 6.50562 11.0621 6.20991 11.2832C6.06429 11.3912 5.94857 11.5203 5.86955 11.6629C5.79054 11.8054 5.74983 11.9586 5.74983 12.1133C5.74983 12.2681 5.79054 12.4212 5.86955 12.5638C5.94857 12.7064 6.06429 12.8355 6.20991 12.9435L19.6764 23.0279C20.5634 23.6905 21.7568 24.0618 22.9999 24.0618C24.243 24.0618 25.4364 23.6905 26.3234 23.0279L39.7899 12.9435C39.936 12.8354 40.0521 12.7062 40.1313 12.5634C40.2106 12.4207 40.2515 12.2672 40.2515 12.1122C40.2515 11.9572 40.2106 11.8038 40.1313 11.661C40.0521 11.5183 39.936 11.389 39.7899 11.281C39.4942 11.0599 39.0962 10.936 38.6816 10.936C38.267 10.936 37.869 11.0599 37.5733 11.281Z" fill="#F2F2F2"/>
</svg>
