<svg width="46" height="34" viewBox="0 0 46 34" fill="none" xmlns="http://www.w3.org/2000/svg">
<path d="M37.5733 10.9586L24.1039 20.757C23.81 20.9719 23.4133 21.0925 22.9999 21.0925C22.5865 21.0925 22.1898 20.9719 21.8959 20.757L8.42653 10.9608C8.13082 10.746 7.73282 10.6256 7.31822 10.6256C6.90363 10.6256 6.50562 10.746 6.20991 10.9608C6.06429 11.0657 5.94857 11.1911 5.86955 11.3296C5.79054 11.4681 5.74983 11.6169 5.74983 11.7672C5.74983 11.9175 5.79054 12.0663 5.86955 12.2048C5.94857 12.3433 6.06429 12.4687 6.20991 12.5736L19.6764 22.3699C20.5634 23.0136 21.7568 23.3743 22.9999 23.3743C24.243 23.3743 25.4364 23.0136 26.3234 22.3699L39.7899 12.5736C39.936 12.4687 40.0521 12.3431 40.1313 12.2045C40.2106 12.0658 40.2515 11.9167 40.2515 11.7661C40.2515 11.6156 40.2106 11.4665 40.1313 11.3278C40.0521 11.1891 39.936 11.0636 39.7899 10.9586C39.4942 10.7439 39.0962 10.6235 38.6816 10.6235C38.267 10.6235 37.869 10.7439 37.5733 10.9586Z" fill="#232323"/>
</svg>
