<svg width="19" height="10" viewBox="0 0 19 10" fill="none" xmlns="http://www.w3.org/2000/svg">
<path d="M17.5251 0.262839L10.1076 7.94738C9.94572 8.11592 9.72725 8.21045 9.49959 8.21045C9.27193 8.21045 9.05347 8.11592 8.89162 7.94738L1.47406 0.264506C1.31121 0.0960563 1.09203 0.00166829 0.863711 0.00166827C0.635394 0.00166825 0.416211 0.0960562 0.253365 0.264506C0.173175 0.346795 0.109446 0.44515 0.0659321 0.553771C0.0224179 0.662392 7.93594e-07 0.779084 7.83449e-07 0.896968C7.73303e-07 1.01485 0.0224178 1.13154 0.0659321 1.24016C0.109446 1.34879 0.173175 1.44714 0.253365 1.52943L7.66935 9.2123C8.15782 9.71715 8.81503 10 9.49959 10C10.1842 10 10.8414 9.71715 11.3298 9.2123L18.7458 1.52943C18.8263 1.44711 18.8902 1.34866 18.9338 1.23988C18.9775 1.13111 19 1.01422 19 0.896135C19 0.77805 18.9775 0.661165 18.9338 0.55239C18.8902 0.443614 18.8263 0.345156 18.7458 0.262839C18.583 0.0943899 18.3638 1.85085e-06 18.1355 1.83058e-06C17.9072 1.8103e-06 17.688 0.0943898 17.5251 0.262839Z" fill="#C33131"/>
</svg>
