<svg width="5" height="9" viewBox="0 0 5 9" fill="none" xmlns="http://www.w3.org/2000/svg">
<path d="M0.545193 1.01495L3.71526 4.23588C3.78478 4.30616 3.82378 4.40103 3.82378 4.49988C3.82378 4.59874 3.78478 4.69361 3.71526 4.76388L0.54588 7.98482C0.476391 8.05553 0.437453 8.15071 0.437453 8.24985C0.437453 8.34899 0.476391 8.44417 0.54588 8.51488C0.579827 8.5497 0.620401 8.57738 0.66521 8.59627C0.710019 8.61517 0.758157 8.6249 0.806787 8.6249C0.855417 8.6249 0.903555 8.61517 0.948364 8.59627C0.993173 8.57738 1.03375 8.5497 1.06769 8.51488L4.23707 5.29463C4.44533 5.08252 4.56201 4.79714 4.56201 4.49988C4.56201 4.20262 4.44533 3.91724 4.23707 3.70513L1.06769 0.484884C1.03374 0.449957 0.99312 0.422194 0.948247 0.403237C0.903375 0.384279 0.855156 0.374512 0.806443 0.374512C0.75773 0.374512 0.709512 0.384279 0.66464 0.403237C0.619767 0.422194 0.579151 0.449957 0.545193 0.484884C0.475704 0.555597 0.436766 0.650773 0.436766 0.749915C0.436766 0.849057 0.475704 0.944233 0.545193 1.01495Z" fill="#F2F2F2"/>
</svg>
