<svg width="5" height="10" viewBox="0 0 5 10" fill="none" xmlns="http://www.w3.org/2000/svg">
<path d="M0.131419 0.776247L3.97369 4.68023C4.05796 4.76541 4.10522 4.88039 4.10522 5.00021C4.10522 5.12003 4.05796 5.23502 3.97369 5.3202L0.132252 9.22418C0.0480276 9.30989 0.000833576 9.42525 0.000833571 9.54541C0.000833566 9.66558 0.0480276 9.78094 0.132252 9.86665C0.173398 9.90886 0.222574 9.9424 0.276885 9.9653C0.331196 9.9882 0.389542 10 0.448484 10C0.507426 10 0.565771 9.9882 0.620082 9.9653C0.674392 9.9424 0.723569 9.90886 0.764714 9.86665L4.60615 5.9635C4.85858 5.70641 5 5.36051 5 5.00021C5 4.63992 4.85858 4.29402 4.60615 4.03693L0.764715 0.133778C0.723557 0.0914449 0.674329 0.0577945 0.619941 0.0348166C0.565553 0.0118388 0.50711 -1.8409e-07 0.448067 -1.86509e-07C0.389025 -1.88928e-07 0.330582 0.0118387 0.276194 0.0348166C0.221807 0.0577945 0.172577 0.0914448 0.131419 0.133778C0.0471945 0.219486 4.62201e-07 0.334846 4.56948e-07 0.455012C4.51695e-07 0.575179 0.0471945 0.690538 0.131419 0.776247Z" fill="#191919"/>
</svg>
