<svg width="14" height="14" viewBox="0 0 14 14" fill="none" xmlns="http://www.w3.org/2000/svg">
<path d="M7.28201 6.53325L12.91 0.89975C13.0093 0.799971 13.065 0.664909 13.0649 0.524147C13.0648 0.383385 13.0089 0.248397 12.9095 0.14875C12.7105 -0.0492501 12.36 -0.0502499 12.159 0.14975L6.53251 5.78325L0.904012 0.14825C0.704012 -0.0492501 0.353512 -0.0482501 0.154512 0.14925C0.105118 0.198447 0.0660168 0.256988 0.0394904 0.321459C0.012964 0.385929 -0.000456563 0.455037 1.1852e-05 0.52475C1.1852e-05 0.66675 0.0550119 0.79975 0.154512 0.89825L5.78251 6.53275L0.155012 12.1678C0.0557045 12.2677 9.13732e-05 12.4029 0.000372579 12.5438C0.000653785 12.6847 0.0568065 12.8197 0.156512 12.9192C0.253012 13.0147 0.389512 13.0698 0.530512 13.0698H0.533512C0.675012 13.0693 0.811512 13.0138 0.906012 12.9173L6.53251 7.28375L12.161 12.9187C12.2605 13.0177 12.3935 13.0728 12.5345 13.0728C12.6042 13.0728 12.6732 13.0591 12.7376 13.0325C12.802 13.0059 12.8605 12.9668 12.9098 12.9175C12.9591 12.8682 12.9981 12.8097 13.0248 12.7453C13.0514 12.6809 13.0651 12.6119 13.065 12.5423C13.065 12.4008 13.01 12.2673 12.91 12.1687L7.28201 6.53325Z" fill="black"/>
</svg>
