<svg width="68" height="68" viewBox="0 0 68 68" fill="none" xmlns="http://www.w3.org/2000/svg">
<path d="M44 23.5L29.5 44" stroke="#D9D9D9" stroke-width="2"/>
<path d="M20.476 37V34.858H23.338V26.434H20.926V24.796C22.258 24.544 23.176 24.202 24.022 23.662H25.984V34.858H28.486V37H20.476Z" fill="#1F78CB"/>
<path d="M43.624 37.136H46.392V34.72C46.392 34.032 46.44 32.96 46.472 32.256H46.408C46.12 32.896 45.8 33.552 45.464 34.192L43.624 37.136ZM46.392 42V38.928H41.336V37.328L45.752 30.144H48.584V37.136H49.976V38.928H48.584V42H46.392Z" fill="#C1C1C1"/>
<circle cx="34" cy="34" r="32.5" stroke="#1F78CB" stroke-width="3"/>
<path d="M35.5 66.5C16.7223 66.5 1.5 52.7777 1.5 34C1.5 15.2223 16.2223 1.5 35 1.5" stroke="#D9D9D9" stroke-width="3"/>
</svg>
