<svg width="80" height="80" viewBox="0 0 80 80" fill="none" xmlns="http://www.w3.org/2000/svg">
<path d="M15.3867 66.6663C13.8511 66.6663 12.57 66.153 11.5433 65.1263C10.5167 64.0997 10.0022 62.8175 10 61.2797V18.7197C10 17.1841 10.5144 15.903 11.5433 14.8763C12.5722 13.8497 13.8522 13.3352 15.3833 13.333H64.6167C66.15 13.333 67.43 13.8475 68.4567 14.8763C69.4833 15.9052 69.9978 17.1863 70 18.7197V61.283C70 62.8163 69.4856 64.0975 68.4567 65.1263C67.4278 66.1552 66.1478 66.6686 64.6167 66.6663H15.3867ZM15.3867 63.333H64.6167C65.1278 63.333 65.5978 63.1197 66.0267 62.693C66.4556 62.2663 66.6689 61.7952 66.6667 61.2797V18.7197C66.6667 18.2063 66.4533 17.7352 66.0267 17.3063C65.6 16.8775 65.13 16.6641 64.6167 16.6663H15.3833C14.8722 16.6663 14.4022 16.8797 13.9733 17.3063C13.5444 17.733 13.3311 18.2041 13.3333 18.7197V61.283C13.3333 61.7941 13.5467 62.2641 13.9733 62.693C14.4 63.1219 14.87 63.3352 15.3833 63.333M18.3333 54.9997H31.6667V51.6663H18.3333V54.9997ZM48.5 47.6297L62.6267 33.4997L60.25 31.1197L48.5 42.953L43.75 38.2063L41.4567 40.583L48.5 47.6297ZM18.3333 41.6663H31.6667V38.333H18.3333V41.6663ZM18.3333 28.333H31.6667V24.9997H18.3333V28.333Z" fill="#545454"/>
</svg>
