<svg width="61" height="61" viewBox="0 0 61 61" fill="none" xmlns="http://www.w3.org/2000/svg">
<path d="M30.5 36.6C47.336 36.6 61 42.9847 61 50.8333V61H0V50.8333C0 42.9847 13.664 36.6 30.5 36.6ZM56.9333 50.8333C56.9333 45.2213 45.0993 40.6667 30.5 40.6667C15.9007 40.6667 4.06667 45.2213 4.06667 50.8333V56.9333H56.9333V50.8333ZM30.5 0C34.2749 0 37.8952 1.49958 40.5645 4.16885C43.2338 6.83812 44.7333 10.4584 44.7333 14.2333C44.7333 18.0082 43.2338 21.6286 40.5645 24.2978C37.8952 26.9671 34.2749 28.4667 30.5 28.4667C26.7251 28.4667 23.1048 26.9671 20.4355 24.2978C17.7662 21.6286 16.2667 18.0082 16.2667 14.2333C16.2667 10.4584 17.7662 6.83812 20.4355 4.16885C23.1048 1.49958 26.7251 0 30.5 0ZM30.5 4.06667C27.8036 4.06667 25.2177 5.13779 23.3111 7.04441C21.4045 8.95103 20.3333 11.537 20.3333 14.2333C20.3333 16.9297 21.4045 19.5156 23.3111 21.4223C25.2177 23.3289 27.8036 24.4 30.5 24.4C33.1964 24.4 35.7823 23.3289 37.6889 21.4223C39.5955 19.5156 40.6667 16.9297 40.6667 14.2333C40.6667 11.537 39.5955 8.95103 37.6889 7.04441C35.7823 5.13779 33.1964 4.06667 30.5 4.06667Z" fill="#545454"/>
</svg>
