<svg width="58" height="58" viewBox="0 0 58 58" fill="none" xmlns="http://www.w3.org/2000/svg">
<path fill-rule="evenodd" clip-rule="evenodd" d="M30.3603 7.73301H27.6391L26.0803 13.9632L24.5168 14.4465C23.6056 14.7273 22.7229 15.093 21.8802 15.5388L20.4326 16.3049L14.9226 12.9989L12.9989 14.925L16.3049 20.435L15.5388 21.8802C15.0922 22.7228 14.7256 23.6056 14.4441 24.5168L13.9632 26.0803L7.73301 27.6391V30.3603L13.9632 31.919L14.4465 33.4826C14.7252 34.3977 15.0893 35.2766 15.5388 36.1192L16.3049 37.5668L12.9989 43.0768L14.925 45.0004L20.435 41.6944L21.8802 42.4605C22.7228 42.9084 23.6016 43.2733 24.5168 43.5553L26.0803 44.0362L27.6391 50.2663H30.3603L31.919 44.0362L33.4826 43.5528C34.3937 43.2721 35.2765 42.9064 36.1192 42.4605L37.5668 41.6944L43.0768 45.0004L45.0004 43.0743L41.6944 37.5643L42.4605 36.1192C42.9084 35.2766 43.2733 34.3977 43.5553 33.4826L44.0362 31.919L50.2663 30.3603V27.6391L44.0362 26.0803L43.5528 24.5168C43.2721 23.6056 42.9064 22.7229 42.4605 21.8802L41.6944 20.4326L45.0004 14.9226L43.0743 12.9989L37.5643 16.3049L36.1192 15.5388C35.2765 15.0922 34.3938 14.7256 33.4826 14.4441L31.919 13.9632L30.3603 7.73301ZM37.4773 12.9772L41.9071 10.3188C42.369 10.0418 42.9102 9.927 43.4448 9.99268C43.9794 10.0584 44.4767 10.3007 44.8578 10.6813L47.318 13.1415C47.6986 13.5226 47.941 14.02 48.0067 14.5545C48.0723 15.0891 47.9576 15.6304 47.6805 16.0923L45.0222 20.522C45.5538 21.5209 45.9888 22.5681 46.3272 23.6637L51.3369 24.9179C51.8595 25.0488 52.3234 25.3506 52.6548 25.7753C52.9863 26.2001 53.1663 26.7233 53.1663 27.2621V30.7373C53.1663 31.276 52.9863 31.7993 52.6548 32.224C52.3234 32.6487 51.8595 32.9505 51.3369 33.0814L46.3272 34.3357C45.9888 35.4312 45.5538 36.4785 45.0222 37.4773L47.6805 41.9071C47.9576 42.369 48.0723 42.9102 48.0067 43.4448C47.941 43.9794 47.6986 44.4767 47.318 44.8578L44.8578 47.318C44.4767 47.6986 43.9794 47.941 43.4448 48.0067C42.9102 48.0723 42.369 47.9576 41.9071 47.6805L37.4773 45.0222C36.4785 45.5538 35.4312 45.9888 34.3357 46.3272L33.0814 51.3369C32.9505 51.8595 32.6487 52.3234 32.224 52.6548C31.7993 52.9863 31.276 53.1663 30.7373 53.1663H27.2621C26.7233 53.1663 26.2001 52.9863 25.7753 52.6548C25.3506 52.3234 25.0488 51.8595 24.9179 51.3369L23.6637 46.3272C22.5779 45.9916 21.526 45.5547 20.522 45.0222L16.0923 47.6805C15.6304 47.9576 15.0891 48.0723 14.5545 48.0067C14.02 47.941 13.5226 47.6986 13.1415 47.318L10.6813 44.8578C10.3007 44.4767 10.0584 43.9794 9.99268 43.4448C9.927 42.9102 10.0418 42.369 10.3188 41.9071L12.9772 37.4773C12.4446 36.4734 12.0077 35.4215 11.6722 34.3357L6.66242 33.0814C6.14023 32.9506 5.67666 32.6492 5.34525 32.225C5.01384 31.8007 4.83356 31.278 4.83301 30.7397V27.2645C4.83302 26.7258 5.01305 26.2025 5.34451 25.7778C5.67596 25.353 6.13983 25.0513 6.66242 24.9203L11.6722 23.6661C12.0105 22.5705 12.4455 21.5233 12.9772 20.5244L10.3188 16.0947C10.0418 15.6328 9.927 15.0916 9.99268 14.557C10.0584 14.0224 10.3007 13.525 10.6813 13.1439L13.1415 10.6813C13.5226 10.3007 14.02 10.0584 14.5545 9.99268C15.0891 9.927 15.6304 10.0418 16.0923 10.3188L20.522 12.9772C21.5209 12.4455 22.5681 12.0105 23.6637 11.6722L24.9179 6.66242C25.0487 6.14023 25.3502 5.67666 25.7744 5.34525C26.1986 5.01384 26.7213 4.83356 27.2597 4.83301H30.7348C31.2736 4.83302 31.7969 5.01305 32.2216 5.34451C32.6463 5.67596 32.9481 6.13983 33.079 6.66242L34.3333 11.6722C35.4288 12.0105 36.476 12.4455 37.4749 12.9772H37.4773ZM28.9997 35.7663C30.7943 35.7663 32.5154 35.0534 33.7844 33.7844C35.0534 32.5154 35.7663 30.7943 35.7663 28.9997C35.7663 27.205 35.0534 25.4839 33.7844 24.2149C32.5154 22.9459 30.7943 22.233 28.9997 22.233C27.205 22.233 25.4839 22.9459 24.2149 24.2149C22.9459 25.4839 22.233 27.205 22.233 28.9997C22.233 30.7943 22.9459 32.5154 24.2149 33.7844C25.4839 35.0534 27.205 35.7663 28.9997 35.7663ZM28.9997 38.6663C26.4359 38.6663 23.9772 37.6479 22.1643 35.835C20.3515 34.0222 19.333 31.5634 19.333 28.9997C19.333 26.4359 20.3515 23.9772 22.1643 22.1643C23.9772 20.3515 26.4359 19.333 28.9997 19.333C31.5634 19.333 34.0222 20.3515 35.835 22.1643C37.6479 23.9772 38.6663 26.4359 38.6663 28.9997C38.6663 31.5634 37.6479 34.0222 35.835 35.835C34.0222 37.6479 31.5634 38.6663 28.9997 38.6663Z" fill="#545454"/>
</svg>
