<svg width="7" height="13" viewBox="0 0 7 13" fill="none" xmlns="http://www.w3.org/2000/svg">
<path d="M0.183987 1.00912L5.56317 6.0843C5.68114 6.19503 5.74731 6.34451 5.74731 6.50028C5.74731 6.65604 5.68114 6.80552 5.56317 6.91626L0.185153 11.9914C0.0672392 12.1029 0.00116724 12.2528 0.00116723 12.409C0.00116722 12.5653 0.0672392 12.7152 0.185153 12.8266C0.242757 12.8815 0.311604 12.9251 0.387639 12.9549C0.463674 12.9847 0.545359 13 0.627878 13C0.710396 13 0.792079 12.9847 0.868115 12.9549C0.94415 12.9251 1.013 12.8815 1.0706 12.8266L6.44861 7.75255C6.80201 7.41834 7 6.96866 7 6.50028C7 6.03189 6.80201 5.58222 6.44861 5.248L1.0706 0.173911C1.01298 0.118878 0.94406 0.0751328 0.867917 0.0452616C0.791774 0.0153904 0.709953 -2.57726e-07 0.627294 -2.61113e-07C0.544635 -2.64499e-07 0.462815 0.0153904 0.386672 0.0452616C0.310529 0.0751328 0.241608 0.118878 0.183987 0.173911C0.0660725 0.285332 9.34647e-07 0.4353 9.27818e-07 0.591516C9.2099e-07 0.747732 0.0660724 0.8977 0.183987 1.00912Z" fill="#F2F2F2"/>
</svg>
